<svg xmlns="http://www.w3.org/2000/svg" xmlns:xlink="http://www.w3.org/1999/xlink" width="90.551" height="82" viewBox="0 0 90.551 82"><defs><style>.a{fill:#3480e3;}.b{fill:#666;}.c{fill:#5a5b5b;}.d{fill:#f9f6ed;}.e{fill:#eae4d6;}.f{fill:#7f7e7d;}.g{fill:#0eb0ff;}.h{fill:#ffc30a;}.i{fill:#e0d5bd;}.j{fill:#fe3f4e;}.k{fill:#fff;}.l{fill:#fa243a;}.m{fill:#ff7110;}.n{fill:#e6e6e6;}.o{fill:#ccc;}.p{fill:#ffa01a;}.q{fill:#50d1dc;}.r{filter:url(#a);}</style><filter id="a" x="14.586" y="15.684" width="75.965" height="52.618" filterUnits="userSpaceOnUse"><feOffset dy="3" input="SourceAlpha"/><feGaussianBlur stdDeviation="3" result="b"/><feFlood flood-opacity="0.161"/><feComposite operator="in" in2="b"/><feComposite in="SourceGraphic"/></filter></defs><g transform="translate(-0.258 0.403)"><circle class="a" cx="41" cy="41" r="41" transform="translate(0.258 -0.403)"/><path class="b" d="M88.971,81.024a7.614,7.614,0,0,0,5.09-7.178V7.6A7.6,7.6,0,0,0,86.472,0H57.982a7.605,7.605,0,0,0-7.589,7.6V64.845h0A40.494,40.494,0,0,0,88.971,81.024Z" transform="translate(-41.845 -0.128)"/><path class="c" d="M50.393,7.6V64.847a40.856,40.856,0,0,0,4.2,4.874V7.6A7.6,7.6,0,0,1,62.186,0h-4.2A7.605,7.605,0,0,0,50.393,7.6Z" transform="translate(-41.845 -0.129)"/><path class="d" d="M108.7,26.483h-3.909a.909.909,0,0,0-.908.91v1.164a1.967,1.967,0,0,1-1.959,1.963H86.984a1.967,1.967,0,0,1-1.959-1.963v-.8a1.268,1.268,0,0,0-1.266-1.269H80.207a3.388,3.388,0,0,0-3.384,3.391V91.991a40.686,40.686,0,0,0,10.186,7.358H108.7a3.387,3.387,0,0,0,3.384-3.391V29.874A3.387,3.387,0,0,0,108.7,26.483Z" transform="translate(-64.07 -22.398)"/><path class="e" d="M80.208,26.477a3.388,3.388,0,0,0-3.384,3.391V91.985a40.828,40.828,0,0,0,4.037,3.5V29.868a3.387,3.387,0,0,1,3.084-3.376C83.748,26.463,83.957,26.484,80.208,26.477Z" transform="translate(-64.071 -22.393)"/><g transform="translate(23.844 2.857)"><path class="f" d="M178.352,21.225h-6.393a1.227,1.227,0,0,1,0-2.454h6.393a1.227,1.227,0,0,1,0,2.454Z" transform="translate(-166.886 -18.77)"/><path class="f" d="M147.084,21.012A1.224,1.224,0,1,1,148,21.2,1.966,1.966,0,0,1,147.084,21.012Z" transform="translate(-146.541 -18.764)"/></g><path class="g" d="M106.14,439.051h-3.275a.548.548,0,0,1-.547-.547v-3.284a.548.548,0,0,1,.547-.547h3.275a.548.548,0,0,1,.547.547V438.5A.548.548,0,0,1,106.14,439.051Z" transform="translate(-85.509 -365.653)"/><path class="h" d="M154.627,439.051h-3.275a.548.548,0,0,1-.547-.547v-3.284a.548.548,0,0,1,.547-.547h3.275a.548.548,0,0,1,.547.547V438.5A.548.548,0,0,1,154.627,439.051Z" transform="translate(-126.283 -365.653)"/><path class="i" d="M203.113,439.051h-3.275a.548.548,0,0,1-.547-.547v-3.284a.548.548,0,0,1,.547-.547h3.275a.548.548,0,0,1,.547.547V438.5A.548.548,0,0,1,203.113,439.051Z" transform="translate(-167.055 -365.653)"/><path class="j" d="M251.6,439.051h-3.275a.548.548,0,0,1-.547-.547v-3.284a.548.548,0,0,1,.547-.547H251.6a.548.548,0,0,1,.547.547V438.5A.548.548,0,0,1,251.6,439.051Z" transform="translate(-207.828 -365.653)"/><path class="g" d="M204.507,167.555V146h0V143.01h0v-6.793a1.645,1.645,0,0,0-1.64-1.64H148.182a1.645,1.645,0,0,0-1.64,1.64v6.793h0V149h0v18.557a1.645,1.645,0,0,0,1.64,1.64h54.685A1.645,1.645,0,0,0,204.507,167.555Z" transform="translate(-122.698 -113.296)"/><g transform="translate(23.844 21.281)"><g class="r" transform="matrix(1, 0, 0, 1, -23.59, -21.68)"><path class="k" d="M204.507,167.555V146h0V143.01h0v-6.793a1.645,1.645,0,0,0-1.64-1.64H148.182a1.645,1.645,0,0,0-1.64,1.64v6.793h0V149h0v18.557a1.645,1.645,0,0,0,1.64,1.64h54.685A1.645,1.645,0,0,0,204.507,167.555Z" transform="translate(-122.96 -112.89)"/></g></g><path class="k" d="M155.169,167.556V136.218a1.645,1.645,0,0,1,1.64-1.64h-8.628a1.645,1.645,0,0,0-1.64,1.64v31.338a1.645,1.645,0,0,0,1.64,1.64h8.628A1.645,1.645,0,0,1,155.169,167.556Z" transform="translate(-122.697 -113.297)"/><path class="j" d="M390.361,267.423a5,5,0,0,1,1.289-6.469,5.006,5.006,0,1,0,0,7.936A4.98,4.98,0,0,1,390.361,267.423Z" transform="translate(-322.048 -218.7)"/><path class="l" d="M386.821,266.8a5,5,0,0,1,1.83-6.831c.019-.011.039-.02.058-.03a5,5,0,1,0,2.337,9.361A5,5,0,0,1,386.821,266.8Z" transform="translate(-322.048 -218.714)"/><path class="h" d="M441.533,262.422a5,5,0,0,0-6.831-1.83,5.053,5.053,0,0,0-.541.362,5,5,0,0,1,0,7.937,5,5,0,0,0,7.375-6.469Z" transform="translate(-364.559 -218.7)"/><path class="m" d="M425.1,267.882a4.984,4.984,0,0,0-1.287-1.468,5,5,0,0,0,0,7.937A5,5,0,0,0,425.1,267.882Z" transform="translate(-354.214 -224.16)"/><path class="n" d="M180.39,284.6h3.686a1.577,1.577,0,0,0,0-3.154H180.39a1.577,1.577,0,0,0,0,3.154Z" transform="translate(-149.835 -236.8)"/><path class="o" d="M181.533,283.022a1.582,1.582,0,0,1,1.577-1.577h-2.719a1.577,1.577,0,1,0,0,3.154h2.719A1.582,1.582,0,0,1,181.533,283.022Z" transform="translate(-149.836 -236.8)"/><path class="n" d="M240.214,284.6H243.9a1.577,1.577,0,1,0,0-3.154h-3.686a1.577,1.577,0,1,0,0,3.154Z" transform="translate(-200.142 -236.8)"/><path class="o" d="M241.356,283.022a1.582,1.582,0,0,1,1.577-1.577h-2.719a1.577,1.577,0,1,0,0,3.154h2.719A1.582,1.582,0,0,1,241.356,283.022Z" transform="translate(-200.142 -236.8)"/><path class="n" d="M300.038,284.6h3.686a1.577,1.577,0,0,0,0-3.154h-3.686a1.577,1.577,0,0,0,0,3.154Z" transform="translate(-250.449 -236.8)"/><path class="o" d="M301.18,283.022a1.582,1.582,0,0,1,1.577-1.577h-2.719a1.577,1.577,0,0,0,0,3.154h2.719A1.582,1.582,0,0,1,301.18,283.022Z" transform="translate(-250.449 -236.8)"/><path class="h" d="M187.01,183.334h-6.646a1.555,1.555,0,0,1-1.551-1.551v-3.306a1.555,1.555,0,0,1,1.551-1.551h6.646a1.555,1.555,0,0,1,1.551,1.551v3.306A1.555,1.555,0,0,1,187.01,183.334Z" transform="translate(-149.836 -148.909)"/><path class="p" d="M183.109,181.784v-3.306a1.555,1.555,0,0,1,1.551-1.551h-4.3a1.555,1.555,0,0,0-1.551,1.551v3.306a1.555,1.555,0,0,0,1.551,1.551h4.3A1.555,1.555,0,0,1,183.109,181.784Z" transform="translate(-149.836 -148.909)"/><path class="q" d="M479.055,157.067a1.077,1.077,0,0,0-1.074,1.074V169.2a1.074,1.074,0,0,0,2.148,0V158.141A1.077,1.077,0,0,0,479.055,157.067Z" transform="translate(-401.41 -132.209)"/></g></svg>