<svg xmlns="http://www.w3.org/2000/svg" width="134.899" height="136.257" viewBox="0 0 134.899 136.257"><defs><style>.a{opacity:0.253;}.b{fill:#3480e3;}</style></defs><g class="a" transform="translate(0)"><path class="b" d="M84.495,184.773a37.543,37.543,0,0,0,.006-11.309l9.384-7.363a5.72,5.72,0,0,0,1.414-7.307L89.241,148.3a5.708,5.708,0,0,0-7.04-2.43l-11.06,4.457a35.815,35.815,0,0,0-9.765-5.649L59.7,132.871A5.7,5.7,0,0,0,54.075,128h-12.1a5.7,5.7,0,0,0-5.621,4.877L34.67,144.691a35.94,35.94,0,0,0-9.719,5.637L13.84,145.872a5.713,5.713,0,0,0-7.035,2.43L.753,158.794a5.7,5.7,0,0,0,1.425,7.312l9.374,7.313a37.543,37.543,0,0,0-.006,11.309l-9.384,7.363A5.721,5.721,0,0,0,.748,199.4L6.8,209.89a5.719,5.719,0,0,0,7.04,2.43l11.06-4.457a35.8,35.8,0,0,0,9.765,5.649l1.681,11.808a5.712,5.712,0,0,0,5.626,4.871h12.1a5.7,5.7,0,0,0,5.621-4.877L61.377,213.5a35.94,35.94,0,0,0,9.719-5.637l11.111,4.457a5.694,5.694,0,0,0,7.035-2.43L95.294,199.4a5.7,5.7,0,0,0-1.425-7.312ZM48.024,198.967A19.871,19.871,0,1,1,67.894,179.1,19.893,19.893,0,0,1,48.024,198.967Zm0,0" transform="translate(0 -93.936)"/><path class="b" d="M350.3,31.049a21.523,21.523,0,0,0,.267-2.662,21.54,21.54,0,0,0-.267-2.663l5.116-3.871a2.842,2.842,0,0,0,.743-3.685l-4.593-7.948a2.841,2.841,0,0,0-3.56-1.2L342.117,11.5a21.1,21.1,0,0,0-4.65-2.765l-.783-6.251A2.844,2.844,0,0,0,333.868,0h-9.18a2.839,2.839,0,0,0-2.816,2.487l-.784,6.251a21.18,21.18,0,0,0-4.65,2.765l-5.887-2.481a2.839,2.839,0,0,0-3.566,1.2L302.4,18.167a2.843,2.843,0,0,0,.743,3.685l5.116,3.871a20.393,20.393,0,0,0-.272,2.663,21.512,21.512,0,0,0,.266,2.662l-5.115,3.872a2.84,2.84,0,0,0-.744,3.684l4.593,7.948a2.84,2.84,0,0,0,3.56,1.2l5.887-2.487a21.094,21.094,0,0,0,4.65,2.765l.783,6.251a2.843,2.843,0,0,0,2.816,2.492h9.18a2.837,2.837,0,0,0,2.816-2.487l.784-6.251a21.216,21.216,0,0,0,4.65-2.764L348,47.752a2.839,2.839,0,0,0,3.566-1.2l4.587-7.948a2.841,2.841,0,0,0-.743-3.684Zm-21.023,8.692a11.355,11.355,0,1,1,11.354-11.354A11.352,11.352,0,0,1,329.275,39.741Zm0,0" transform="translate(-221.639)"/></g></svg>