<svg xmlns="http://www.w3.org/2000/svg" width="100" height="100" viewBox="0 0 100 100"><defs><style>.a{fill:#dae2f2;}.b{fill:#4d97ff;}.c{fill:#3480e3;}.d{fill:#fff;}</style></defs><path class="a" d="M254.339,91H209.466l-6.744,81.21a8.576,8.576,0,0,0,3.86,1.016h47.757a8.8,8.8,0,0,0,8.789-8.789V99.789A8.8,8.8,0,0,0,254.339,91Z" transform="translate(-163.128 -73.227)"/><path class="b" d="M169.867,407.86l1.556,12.641a8.942,8.942,0,0,0,4.861,6.683c5.7-6.128,1.878-2.215,15.4-16.757Z" transform="translate(-136.69 -328.2)"/><path class="c" d="M54.99,82.227c.958-1.1,1.8-1.831,1.573-3.339L47.688,7.7A8.8,8.8,0,0,0,38.968,0H8.789A8.8,8.8,0,0,0,0,8.789V73.438a8.8,8.8,0,0,0,8.789,8.789Z"/><path class="d" d="M93.52,108.355A2.932,2.932,0,0,0,90.647,106H84.788a2.932,2.932,0,0,0-2.872,2.355l-5.859,29.3A2.929,2.929,0,1,0,81.8,138.8l1.872-9.364h8.088l1.872,9.364a2.929,2.929,0,1,0,5.745-1.15Zm-8.675,15.223,2.343-11.719h1.059l2.343,11.719Z" transform="translate(-61.155 -85.297)"/></svg>