<svg xmlns="http://www.w3.org/2000/svg" width="93.02" height="93.02" viewBox="0 0 93.02 93.02"><defs><style>.a{fill:#baf04c;}.b{fill:#fff;}</style></defs><g transform="translate(0 0)"><circle class="a" cx="46.51" cy="46.51" r="46.51" transform="translate(0 0)"/><path class="b" d="M71.1,98.584A26.584,26.584,0,0,1,59.55,93.9c-.715-.517-1.484-1.269-1.275-2.125a2.316,2.316,0,0,1,.708-1.029L65.8,83.894a1.731,1.731,0,0,1,1.035-.616c.967-.049,2.248,1.287,3.123,1.682a10.81,10.81,0,0,0,4.115.961,11.087,11.087,0,0,0,10.4-6.492.949.949,0,0,0,.1-.715c-.191-.468-.881-.339-1.349-.16A23.963,23.963,0,1,1,69.115,32.924a25.18,25.18,0,0,1,14.567.967,23.147,23.147,0,0,1,11.29,9.479c2.987,4.928,3.221,10.822,3.32,16.415.1,5.272.468,10.576,0,15.842S96.328,86.234,92.885,90.41a22.175,22.175,0,0,1-3.265,3.228,23.332,23.332,0,0,1-8.987,4.5A24.576,24.576,0,0,1,71.1,98.584Z" transform="translate(-28.525 -16.596)"/><circle class="a" cx="4.878" cy="4.878" r="4.878" transform="translate(32.349 30.643)"/><circle class="a" cx="4.878" cy="4.878" r="4.878" transform="translate(50.021 30.027)"/></g></svg>