<svg xmlns="http://www.w3.org/2000/svg" xmlns:xlink="http://www.w3.org/1999/xlink" width="731.593" height="527.553" viewBox="0 0 731.593 527.553"><defs><style>.a,.e{fill:#6c63ff;}.a,.d{opacity:0.1;}.b{fill:url(#a);}.c{fill:#fbbebe;}.f{fill:#3f3d56;}</style><linearGradient id="a" x1="0.5" y1="1" x2="0.5" gradientUnits="objectBoundingBox"><stop offset="0" stop-color="gray" stop-opacity="0.251"/><stop offset="0.54" stop-color="gray" stop-opacity="0.122"/><stop offset="1" stop-color="gray" stop-opacity="0.102"/></linearGradient></defs><g transform="translate(0 -22.357)"><path class="a" d="M401.757,157.205c46.9-1.21,91.57-12.457,134.225-24.762s84.9-25.965,130.681-32.487c29.444-4.2,63.119-4.79,86.838,6.942,22.835,11.276,30.212,30.741,34.176,48.858,2.986,13.6,4.739,27.915-3.435,40.647-5.681,8.841-15.754,16.269-22.726,24.74-24.255,29.465-7.109,65.793,19.168,94.563C793,329.2,807.315,342.07,816.83,356.441s13.914,30.821,5.587,45.481c-8.247,14.494-27.907,25.429-49.206,33.1C729.956,450.612,679,455.069,629.284,457.6c-110.028,5.595-220.635,3.167-330.953.725-40.828-.9-81.831-1.8-121.992-6.522-22.306-2.6-45.329-6.74-61.525-16.718-20.552-12.667-25.646-34.118-11.87-50,23.1-26.646,86.961-33.27,103.129-61.866,8.885-15.74-.239-33.27-13.16-47.872-27.712-31.313-74.156-58.786-76.6-94.585-1.681-24.581,20.646-49.206,55.17-60.837,36.183-12.189,86.367-10.66,113.05,9.522C312.034,150.248,360.341,158.249,401.757,157.205Z" transform="translate(-95.226 -74.85)"/><ellipse class="a" cx="157.98" cy="11.232" rx="157.98" ry="11.232" transform="translate(383.115 527.445)"/><path class="b" d="M228.032,585.924c-2.174-3.906-4.776-7.587-6.877-11.544-1.92-3.623-3.42-7.464-5.152-11.189-2.964-6.377-6.616-12.406-9.943-18.61-2.174-4.065-4.276-8.493-3.855-13.088.4-4.348,2.949-8.116,3.935-12.319,4.015-17.255,13.675-33.1,19.566-49.785,1.507-4.232,2.971-8.493,4.855-12.58,3.623-7.863,8.7-14.928,13.769-21.936a61.942,61.942,0,0,1,6.087-7.566c1.819-1.819,3.863-3.421,5.515-5.392,3.406-4.058,5-9.9,9.261-13.044.072.188.152.37.232.558,3.051-7.79,13.283-12.928,19.218-19.385a114.1,114.1,0,0,0,9.515-12.5l12.921-18.675c2.225-3.218,4.493-6.522,5.392-10.356,1.1-4.623.08-9.551,1.167-14.175a17.878,17.878,0,0,1,3.949-7.508c-.123-.036-.254-.087-.384-.116-2.464-.659-5.073-.775-7.515-1.362-5.326-1.268-9.957-4.674-15.262-6.037-2.71-.725-5.6-.87-8.058-2.174a6.7,6.7,0,0,1-3.116-7.116c1.717-9.095-3.08-18.313-2.268-27.538.217-2.551.87-5.036,1.29-7.566a80.2,80.2,0,0,0,.449-17.842,37.683,37.683,0,0,0-5.906-7.341c-3.261-3.145-7.153-5.8-9.421-9.732a18.979,18.979,0,0,1-1.957-11.682c.355-2.9,1.341-5.95,3.623-7.711s5.558-1.891,8.319-.971c.384.123.761.275,1.131.435a9.5,9.5,0,0,1,7.493-.435,22.706,22.706,0,0,1,7.334,4.623,16.761,16.761,0,0,1,3.421,3.623c1.4,2.174,1.8,4.855,2.333,7.413a72.474,72.474,0,0,0,4.892,14.341c.391.812,1.449,2.268,2.3,3.66l1.551-.319c.674,6.457,6.08,11.2,9.37,16.776,1.6,2.71,2.725,5.674,4.167,8.479a82.19,82.19,0,0,0,5.5,8.819q2.935,4.348,5.877,8.616a122.478,122.478,0,0,0,7.971,10.783c2.66-.217,5.319-.413,7.971-.457a64.7,64.7,0,0,1,13.269,1.181,36.948,36.948,0,0,0,.471-4.645v-.283c0-.377-.043-.826-.094-1.312a26.813,26.813,0,0,1,1.283-45.365,19.5,19.5,0,0,1-.275-2.464v-1.449a3.416,3.416,0,0,1,.051-.725,9.576,9.576,0,0,1,.246-1.449c.058-.232.123-.464.2-.725a6.845,6.845,0,0,1,.6-1.3.622.622,0,0,1,.051-.072c.094-.152.188-.3.3-.449s.094-.116.138-.174a3.459,3.459,0,0,1,.246-.3l.181-.188c.08-.087.159-.174.246-.254l.2-.181.254-.225.232-.174.261-.2.254-.167.261-.167c.087-.058.181-.109.275-.159l.268-.152.29-.145.268-.13.319-.138.261-.116.348-.13.246-.094.377-.13.225-.072.413-.13.2-.058.449-.123.174-.051.471-.116.138-.036.522-.116h.087l.768-.167q4.761-.978,9.58-1.688a21.582,21.582,0,0,1,7.921-.138c3.58.8,6.566,3.218,9.914,4.718,3.957,1.783,8.348,2.254,12.566,3.232s8.558,2.652,11.2,6.109c2.015,2.638,2.819,5.993,3.421,9.261,5.015,27.277-.391,55.257-1.413,82.983-.4,10.79.087,22.327,6.2,31.161l-17.813-.471c-.855,0-1.717-.051-2.587-.1s-1.739-.116-2.594-.217a17.161,17.161,0,0,1-6.457-1.935A11.139,11.139,0,0,1,400.6,373.8c-2.42-2.493-3.71-5.979-4.892-9.312-.4-1.123-.8-2.261-1.152-3.406-.145-.478-.283-.957-.406-1.449l-.058-.232-.2.094a44.83,44.83,0,0,1-2.413,3.986c-3.109,4.58-7.051,8.493-10.964,12.385-7.776,7.718-15.725,15.573-25.472,20.53-3.29,1.66-6.848,3.058-9.356,5.8-1.232,1.326-2.3,3.029-4.044,3.486-1.087.283-2.283,0-3.319.464-1.522.638-2.08,2.471-2.783,3.978s-2.29,3.044-3.8,2.355a7.616,7.616,0,0,1-2.841,7.558,5.552,5.552,0,0,0-1.841,1.652,6.007,6.007,0,0,0-.377,1.942,7.674,7.674,0,0,1-2.747,4.7c1.413,2.341.283,5.7.246,8.616,0,2.449.8,4.812,1.355,7.2,1.6,6.993.725,14.312-.58,21.363-.725,3.892-1.645,7.921-4.181,10.943-.826.978-1.812,1.826-2.681,2.776A25.8,25.8,0,0,0,314,485.469a48.915,48.915,0,0,0-4.442,14.233,25.914,25.914,0,0,1-2.1,7.174c-1.587,3.464-.138,7.725-1.558,11.261-.645,1.587-1.833,2.942-2.218,4.6-.543,2.413.725,4.826,1.065,7.283.826,5.754-3.326,11.095-3.7,16.892a1.333,1.333,0,0,0,.2.978c.283.319.768.312,1.152.493.725.348.92,1.326,1.152,2.138s.884,1.732,1.688,1.486c11.906,6.37,24.233,12.254,36.14,18.624l5.435,2.9,29.067,15.53a2.1,2.1,0,0,1,1.167,1.9c0,.348-.043.725-.072,1.051,2.036.507,3.993,1.116,5.384,1.37.573.109,1.145.217,1.71.341a1.826,1.826,0,0,1-.261-.725,1.449,1.449,0,0,1,1.283-1.449,4.645,4.645,0,0,1,2.094.275,30.557,30.557,0,0,0,5.073.935,36.2,36.2,0,0,1,6.08.725,6.912,6.912,0,0,1,4.71,3.623,8.79,8.79,0,0,1,.522,3.42,52.357,52.357,0,0,1-1.58,13.291,1.13,1.13,0,0,1-.529.848c-.254.1-.558,0-.812.116a1.087,1.087,0,0,0-.471.594c-1.217,2.768-1.5,5.855-1.826,8.87q-.725,6.7-1.833,13.37c-.435,2.594-.971,5.3-2.66,7.3-1.855,2.174-4.79,3.138-7.624,3.522-5.979.8-12.015-.406-17.914-1.645a5.249,5.249,0,0,1-3.022-1.37,3.413,3.413,0,0,1-.725-2.413c.138-2.978,2.848-5.073,5.312-6.747l3.363-2.326a1.449,1.449,0,0,0,.725-1.638l-.217-4.4h.652c-.725-3.1-1.891-6.08-4.174-8.211-1.573-1.449-3.623-2.464-5.268-3.783a13.044,13.044,0,0,1-7.326,2.689c-4.348-5.855-10.472-9.841-16.6-13.769a162.315,162.315,0,0,0-15.4-8.595q-6.421-3.174-13.044-5.95c-6.232-2.623-12.58-4.964-18.936-7.247a76.245,76.245,0,0,1-12.421-5.268c-10.146-5.863-17.313-17.566-15.943-29.284,1.725-14.783-1.964-30.19-1.717-45.075.072-4.348.232-8.7,1.551-12.863a6.869,6.869,0,0,0-.862.725c-2.638,2.464-3.276,6.377-5.8,9.189-1.964,2.21-4.95,3.623-6.138,6.319-.906,2.065-.775,4.855-2.667,6.044-.536.341-1.174.486-1.71.819a5.723,5.723,0,0,0-1.587,1.717c-2.007,2.862-4.087,5.928-4.3,9.421-.094,1.384.036,2.986-.978,3.92-.29.268-.659.464-.812.826-.319.725.522,1.493.667,2.3.21,1.116-.891,1.964-1.573,2.9a4.558,4.558,0,0,0,0,5.37c5.942,7.718,7.015,18.117,12.211,26.371,1.8,2.848,3.8,5.544,5.537,8.428,5.348,8.856,8.051,19.03,10.674,29.052a16.051,16.051,0,0,1-4.457,4.971,24.638,24.638,0,0,0,4.964,9.167,23.09,23.09,0,0,1,1.638,2.051,3.986,3.986,0,0,1,1.616-1.217,57.414,57.414,0,0,1,1.449,12.682c0,2.812-.384,6.022-2.667,7.645a9.458,9.458,0,0,1-2.964,1.225L262.4,641.92a5.2,5.2,0,0,1-2.747.268c-.587-.167-1.109-.529-1.71-.645a4.2,4.2,0,0,0-1.928.254l-4.3,1.254a28.413,28.413,0,0,0-4.247,1.5c-1.225.587-2.355,1.348-3.558,2a43,43,0,0,1-6.21,2.551l-7.406,2.551a26.953,26.953,0,0,1-6.421,1.667c-1.522.13-3.065,0-4.565.261-1.145.2-2.254.609-3.406.725a8.928,8.928,0,0,1-5.363-1.594,4.791,4.791,0,0,1-1.551-1.4c-1.087-1.7-.152-3.935.906-5.645a22.326,22.326,0,0,1,7.66-7.971c1.312-.725,2.732-1.261,4.087-1.928,3.855-1.884,6.761-5.029,10.406-7.182a2.471,2.471,0,0,1,3.123.21c3.029-1.964,6.3-3.884,7.971-7.08a15.942,15.942,0,0,0,1.449-4.892c-1.7.406-3.42.725-5.152,1.007C236.626,606.9,233.546,595.78,228.032,585.924Zm69.62-309.068c.145.819.3,1.631.478,2.442,1.449,6.8,3.522,14.428,8.261,19.494a18.118,18.118,0,0,0,5.348,3.529l.529.261C308.855,293.466,303.42,285.017,297.651,276.857Z" transform="translate(221.543 -108.403)"/><path class="c" d="M411.748,236.978c-.536-2.529-.942-5.181-2.341-7.363a16.82,16.82,0,0,0-3.428-3.623,22.856,22.856,0,0,0-7.348-4.594,9.179,9.179,0,0,0-8.327.964c-2.319,1.754-3.3,4.776-3.66,7.66a18.859,18.859,0,0,0,1.964,11.595c2.247,3.921,6.145,6.522,9.421,9.667a37.409,37.409,0,0,1,6.138,7.653,21.8,21.8,0,0,0,2.8,4.087,5.312,5.312,0,0,0,4.442,1.775,7.837,7.837,0,0,0,3.623-2.123c1.341-1.174,4.95-3.268,5.073-5.131.087-1.507-2.732-4.928-3.421-6.341a71.394,71.394,0,0,1-4.935-14.225Z" transform="translate(100.432 -108.888)"/><path class="d" d="M411.748,236.978c-.536-2.529-.942-5.181-2.341-7.363a16.82,16.82,0,0,0-3.428-3.623,22.856,22.856,0,0,0-7.348-4.594,9.179,9.179,0,0,0-8.327.964c-2.319,1.754-3.3,4.776-3.66,7.66a18.859,18.859,0,0,0,1.964,11.595c2.247,3.921,6.145,6.522,9.421,9.667a37.409,37.409,0,0,1,6.138,7.653,21.8,21.8,0,0,0,2.8,4.087,5.312,5.312,0,0,0,4.442,1.775,7.837,7.837,0,0,0,3.623-2.123c1.341-1.174,4.95-3.268,5.073-5.131.087-1.507-2.732-4.928-3.421-6.341a71.394,71.394,0,0,1-4.935-14.225Z" transform="translate(100.432 -108.888)"/><path class="e" d="M378.75,323.2a65.011,65.011,0,0,0-17.805-2.174c-10.022.145-20.342,2.573-29.886-.5a51.837,51.837,0,0,1-7.167-3.109,18.191,18.191,0,0,1-5.348-3.507c-4.747-5.029-6.79-12.6-8.276-19.363s-1.87-13.7-2.254-20.61c-2.471,1.152-5.073,2.29-7.812,2.058s-5.471-2.319-5.457-5.073c.406,6.4.725,12.877-.355,19.2-.42,2.507-1.073,4.979-1.3,7.515-.812,9.16,3.993,18.313,2.275,27.349a6.631,6.631,0,0,0,3.116,7.066c2.464,1.326,5.363,1.493,8.073,2.174,5.312,1.355,9.95,4.732,15.283,5.993,2.486.587,5.073.725,7.522,1.355,3.522.928,6.718,2.942,10.3,3.58,2.689.478,5.457.152,8.174.384,2.362.2,4.681.819,7.051.877,5.8.145,11.283-3.138,15.139-7.493S376.33,328.474,378.75,323.2Z" transform="translate(209.521 -122.677)"/><path class="d" d="M378.75,323.2a65.011,65.011,0,0,0-17.805-2.174c-10.022.145-20.342,2.573-29.886-.5a51.837,51.837,0,0,1-7.167-3.109,18.191,18.191,0,0,1-5.348-3.507c-4.747-5.029-6.79-12.6-8.276-19.363s-1.87-13.7-2.254-20.61c-2.471,1.152-5.073,2.29-7.812,2.058s-5.471-2.319-5.457-5.073c.406,6.4.725,12.877-.355,19.2-.42,2.507-1.073,4.979-1.3,7.515-.812,9.16,3.993,18.313,2.275,27.349a6.631,6.631,0,0,0,3.116,7.066c2.464,1.326,5.363,1.493,8.073,2.174,5.312,1.355,9.95,4.732,15.283,5.993,2.486.587,5.073.725,7.522,1.355,3.522.928,6.718,2.942,10.3,3.58,2.689.478,5.457.152,8.174.384,2.362.2,4.681.819,7.051.877,5.8.145,11.283-3.138,15.139-7.493S376.33,328.474,378.75,323.2Z" transform="translate(209.521 -122.677)"/><path class="f" d="M629,350.67a49.887,49.887,0,1,0,49.887,49.884A49.887,49.887,0,0,0,629,350.67m0-12.319a62.206,62.206,0,1,1-62.206,62.2A62.206,62.206,0,0,1,629,338.35Z" transform="translate(-301.341 -141.242)"/><rect class="f" width="14.581" height="15.349" transform="translate(322.285 182.556)"/><rect class="f" width="14.581" height="15.349" transform="translate(304.183 201.94) rotate(149)"/><rect class="f" width="14.581" height="15.349" transform="matrix(-0.485, 0.875, -0.875, -0.485, 278.643, 221.358)"/><rect class="f" width="14.581" height="15.349" transform="translate(270.701 283.782) rotate(58)"/><rect class="f" width="14.581" height="15.349" transform="matrix(0.485, 0.875, -0.875, 0.485, 390.087, 213.911)"/><rect class="f" width="14.581" height="15.349" transform="translate(397.62 291.91) rotate(122)"/><rect class="f" width="14.581" height="15.349" transform="translate(359.036 188.781) rotate(31)"/><rect class="f" width="14.581" height="15.349" transform="translate(322.285 320.709)"/><rect class="f" width="14.581" height="15.349" transform="translate(296.275 329.835) rotate(-149)"/><rect class="f" width="14.581" height="15.349" transform="translate(351.128 316.678) rotate(-31)"/><rect class="f" width="17.653" height="13.044" transform="translate(388.282 253.169)"/><rect class="f" width="17.653" height="13.044" transform="translate(249.376 253.169)"/><path class="f" d="M788.916,226.759A49.887,49.887,0,1,0,838.8,276.644a49.887,49.887,0,0,0-49.887-49.884m0-12.319a62.206,62.206,0,1,1-62.206,62.2,62.206,62.206,0,0,1,62.206-62.2Z" transform="translate(-577.151 -107.127)"/><rect class="f" width="14.581" height="15.349" transform="translate(206.395 92.769)"/><rect class="f" width="14.581" height="15.349" transform="translate(188.288 112.141) rotate(149)"/><rect class="f" width="14.581" height="15.349" transform="matrix(-0.485, 0.875, -0.875, -0.485, 162.749, 131.56)"/><rect class="f" width="14.581" height="15.349" transform="translate(154.813 193.989) rotate(58)"/><rect class="f" width="14.581" height="15.349" transform="matrix(0.485, 0.875, -0.875, 0.485, 274.201, 124.125)"/><rect class="f" width="14.581" height="15.349" transform="translate(281.732 202.121) rotate(122)"/><rect class="f" width="14.581" height="15.349" transform="translate(243.146 98.985) rotate(31)"/><rect class="f" width="14.581" height="15.349" transform="translate(206.395 230.914)"/><rect class="f" width="14.581" height="15.349" transform="translate(180.384 240.043) rotate(-149)"/><rect class="f" width="14.581" height="15.349" transform="translate(235.243 226.881) rotate(-31)"/><rect class="f" width="17.653" height="13.044" transform="translate(272.399 163.374)"/><rect class="f" width="17.653" height="13.044" transform="translate(133.478 163.374)"/><path class="f" d="M468.671,221.456H466.91a49.883,49.883,0,1,0,1.7,99.752c.587-.007,1.174-.007,1.768-.007a49.883,49.883,0,1,0-1.7-99.752m0-12.312h0A62.2,62.2,0,1,1,470.8,333.522c-.725-.009-1.45.027-2.174.027A62.2,62.2,0,1,1,466.5,209.164c.725.009,1.449-.027,2.174-.027Z" transform="translate(-25.097 -105.664)"/><rect class="f" width="14.581" height="15.349" transform="matrix(-0.999, 0.035, -0.035, -0.999, 450.626, 104.008)"/><rect class="f" width="14.581" height="15.349" transform="translate(418.108 109.161) rotate(147.01)"/><rect class="f" width="14.581" height="15.349" transform="translate(393.253 129.456) rotate(117.01)"/><rect class="f" width="14.581" height="15.349" transform="matrix(0.559, 0.829, -0.829, 0.559, 387.476, 192.097)"/><rect class="f" width="14.581" height="15.349" transform="translate(504.375 118.138) rotate(59.01)"/><rect class="f" width="14.631" height="15.402" transform="translate(515.689 196.967) rotate(119.887)"/><rect class="f" width="14.581" height="15.349" transform="translate(472.452 94.088) rotate(29.01)"/><rect class="f" width="14.581" height="15.349" transform="matrix(-0.999, 0.035, -0.035, -0.999, 455.418, 242.064)"/><rect class="f" width="14.581" height="15.349" transform="translate(414.629 237.266) rotate(-150.99)"/><rect class="f" width="14.581" height="15.349" transform="translate(468.984 222.194) rotate(-32.99)"/><rect class="f" width="17.653" height="13.044" transform="matrix(-0.999, 0.035, -0.035, -0.999, 522.021, 169.868)"/><rect class="f" width="17.653" height="13.044" transform="matrix(0.999, -0.035, 0.035, 0.999, 365.087, 162.244)"/><path class="c" d="M274.2,733.1a14.971,14.971,0,0,1,5.138,1.6c2.174,1.326,3.515,3.667,4.471,6.029,2.4,5.928,2.9,12.435,3,18.842.087,5.16-.087,10.443-1.935,15.254a9.638,9.638,0,0,1-2.558,3.993,9.1,9.1,0,0,1-3.5,1.7c-2.754.725-5.95.725-8.2-1.015-2.507-1.964-3.138-5.421-3.667-8.558-.725-4.232-1.732-8.7-4.877-11.646-2.333-2.174-5.674-3.261-7.37-5.957-2.022-3.2-.957-7.384.333-10.95,1.123-3.087,2.768-9.356,6-10.935S270.842,732.486,274.2,733.1Z" transform="translate(330.009 -249.334)"/><path class="c" d="M460.359,752.557a24.24,24.24,0,0,0,5.073,9.356c1.449,1.652,3.225,3.66,2.464,5.711a5.11,5.11,0,0,1-1.348,1.8c-10.624,10.4-25.487,15.457-40.234,17.3a1.385,1.385,0,0,1-.725,0c-.435-.2-.536-.725-.594-1.21a15.315,15.315,0,0,1,0-4.638c.725-3.623,3.877-6.138,6.964-8.124s6.464-3.913,8.189-7.153c2.174-4.029,1.239-9.276,3.8-13.044,2.073-3.065,5.921-4.348,9.573-4.95,1.268-.2,3.964-1.587,5.073-.942C459.721,747.318,459.975,751.3,460.359,752.557Z" transform="translate(24.667 -253.614)"/><path class="f" d="M260.972,732.83a1.449,1.449,0,0,1,1.283-1.449,4.637,4.637,0,0,1,2.094.268,30.608,30.608,0,0,0,5.073.928,36.462,36.462,0,0,1,6.095.725,6.885,6.885,0,0,1,4.718,3.623,8.98,8.98,0,0,1,.522,3.4,51.918,51.918,0,0,1-1.58,13.2,1.145,1.145,0,0,1-.536.848c-.254.1-.558,0-.812.116a1.073,1.073,0,0,0-.471.587c-1.225,2.754-1.507,5.8-1.833,8.812q-.725,6.66-1.833,13.276c-.435,2.573-.971,5.276-2.667,7.247-1.855,2.174-4.8,3.109-7.631,3.493-5.986.8-12.03-.406-17.943-1.638a5.232,5.232,0,0,1-3.022-1.355,3.377,3.377,0,0,1-.725-2.4c.138-2.957,2.855-5.073,5.319-6.7l3.391-2.283a1.76,1.76,0,0,0,.594-.536,1.913,1.913,0,0,0,.167-1.087l-.217-4.348a12.45,12.45,0,0,1,10.87,6.747c.471.935.913,2.029,1.891,2.391,1.21.457,2.558-.565,2.964-1.79a7.8,7.8,0,0,0-.109-3.826c-1.986-10.638-1.522-21.574-2.732-32.328a7.363,7.363,0,0,0-1.08-3.406C262.175,734.533,261.08,733.823,260.972,732.83Z" transform="translate(344.691 -249.446)"/><path class="f" d="M449.626,784.421c-.5.826-1.275,1.449-1.739,2.3a1.952,1.952,0,0,0,.377,2.587,2.551,2.551,0,0,0,1.565.159,52.975,52.975,0,0,0,28.646-12.957,20.081,20.081,0,0,0,3.507-3.848c.935-1.449,1.725-3.152,3.319-3.747a56.647,56.647,0,0,1,1.449,12.595c0,2.79-.384,5.979-2.667,7.595a9.542,9.542,0,0,1-2.971,1.21l-4.979,1.406a5.3,5.3,0,0,1-2.754.268c-.587-.159-1.109-.529-1.71-.638a4.232,4.232,0,0,0-1.935.246l-4.3,1.254a28.424,28.424,0,0,0-4.254,1.449c-1.225.58-2.362,1.341-3.558,1.986a42.585,42.585,0,0,1-6.225,2.529l-7.566,2.623A26.686,26.686,0,0,1,437.4,803.1c-1.522.13-3.065,0-4.573.261-1.145.2-2.254.609-3.413.725a9.023,9.023,0,0,1-5.363-1.587,4.848,4.848,0,0,1-1.558-1.384c-1.087-1.688-.152-3.913.913-5.616a22.053,22.053,0,0,1,7.667-7.892c1.319-.725,2.739-1.261,4.094-1.92,3.855-1.87,6.776-4.993,10.421-7.131C449.032,776.551,451.25,781.761,449.626,784.421Z" transform="translate(8.029 -259.788)"/><path class="c" d="M254.24,356.311a31.343,31.343,0,0,0,13.378,5.2,53.958,53.958,0,0,0,7.573.406,192.616,192.616,0,0,0,31.494-2.631c-4.145-4.565-8.334-9.421-9.9-15.407a25.306,25.306,0,0,1-.471-9.653,72.251,72.251,0,0,1,2.942-12.153,84.206,84.206,0,0,1-13.312-.341c-2.522-.254-8.7-2.551-10.87-.812-2.036,1.616-.5,7.334-.464,9.972v.283a32.088,32.088,0,0,1-2.544,11.638C268.879,349.948,262.059,355.8,254.24,356.311Z" transform="translate(309.674 -136.267)"/><path class="d" d="M265.062,330.846a26.581,26.581,0,0,0,21.74,3.333,72.245,72.245,0,0,1,2.942-12.153,84.21,84.21,0,0,1-13.312-.341c-2.522-.254-8.7-2.551-10.87-.812C263.489,322.491,265.026,328.208,265.062,330.846Z" transform="translate(319.194 -136.253)"/><ellipse class="c" cx="26.523" cy="26.523" rx="26.523" ry="26.523" transform="translate(572.255 144.634)"/><path class="e" d="M244.372,451a12.32,12.32,0,0,0,5.979,10.646,23.624,23.624,0,0,0,6.522,2.283c12.131,2.9,24.559,5.283,37.016,4.573a20.393,20.393,0,0,0,7.855-1.652,8.391,8.391,0,0,0,4.848-6.058,5.74,5.74,0,0,1,.384-1.928,5.434,5.434,0,0,1,1.841-1.638,7.544,7.544,0,0,0,2.8-7.486c1.515.674,3.094-.848,3.8-2.348s1.268-3.312,2.79-3.942c1.036-.442,2.232-.181,3.326-.464,1.746-.449,2.812-2.174,4.044-3.464,2.515-2.689,6.08-4.08,9.37-5.732,9.761-4.921,17.718-12.718,25.509-20.385,3.921-3.863,7.87-7.754,10.979-12.319.877-1.283,1.667-2.6,2.413-3.957a111.258,111.258,0,0,0,6.116-13.993c.986-2.565,1.986-5.276,1.58-7.972-.036-.246-.087-.493-.145-.725A15.254,15.254,0,0,0,379,369.57c-2.7-3.964-6.232-7.718-10.87-8.935s-9.269.254-13.979,1.254a35.62,35.62,0,0,1-4.747.725c-4.993.355-9.935-.986-14.762-2.319l-5.261-1.449c-2.638-.725-3.957-3.913-6.624-4.471a9.3,9.3,0,0,0-3.573.181c-5.413,1.029-10.87,2.355-15.631,5.109a25.757,25.757,0,0,0-3.036,2.065,19.212,19.212,0,0,0-7.058,10.428c-1.087,4.587-.065,9.486-1.167,14.073-.9,3.79-3.174,7.095-5.406,10.29l-12.95,18.494a114.91,114.91,0,0,1-9.53,12.421C257.46,434.994,244.546,440.712,244.372,451Z" transform="translate(241.871 -145.628)"/><path class="c" d="M399.8,236.978c-.536-2.529-.935-5.181-2.333-7.363a16.821,16.821,0,0,0-3.428-3.623,22.934,22.934,0,0,0-7.348-4.594,9.179,9.179,0,0,0-8.327.964c-2.319,1.754-3.3,4.776-3.66,7.66a18.859,18.859,0,0,0,1.964,11.595c2.246,3.921,6.145,6.522,9.421,9.667a37.684,37.684,0,0,1,6.138,7.653,21.807,21.807,0,0,0,2.8,4.087,5.312,5.312,0,0,0,4.442,1.775,7.873,7.873,0,0,0,3.623-2.123c1.341-1.174,4.957-3.268,5.073-5.131.087-1.507-2.732-4.928-3.42-6.341a71.88,71.88,0,0,1-4.942-14.225Z" transform="translate(121.024 -108.888)"/><path class="f" d="M282.155,615.865c3.334,6.153,6.986,12.146,9.957,18.479,1.732,3.7,3.232,7.515,5.16,11.117,2.1,3.928,4.689,7.58,6.884,11.464,5.529,9.79,8.609,20.834,11.457,31.712a63.171,63.171,0,0,0,22.581-7.971c.471-.275.92-.565,1.355-.877a16.116,16.116,0,0,0,4.558-5.022c-2.631-9.95-5.334-20.066-10.689-28.857-1.746-2.9-3.747-5.544-5.544-8.37-5.21-8.189-6.283-18.523-12.233-26.19a4.5,4.5,0,0,1,0-5.334c.688-.891,1.783-1.739,1.58-2.841-.152-.8-.993-1.529-.667-2.283.152-.362.522-.558.812-.819,1.015-.935.884-2.529.971-3.9.225-3.471,2.3-6.522,4.348-9.356a5.8,5.8,0,0,1,1.587-1.71c.536-.326,1.174-.471,1.71-.8,1.9-1.189,1.761-3.957,2.674-6.008,1.188-2.7,4.181-4.08,6.145-6.276,2.5-2.79,3.138-6.681,5.8-9.124a7.256,7.256,0,0,1,.862-.725c-1.319,4.094-1.449,8.464-1.544,12.776-.254,14.776,3.442,30.074,1.71,44.756-1.362,11.646,5.8,23.269,15.979,29.089a76.921,76.921,0,0,0,12.435,5.239c6.37,2.254,12.718,4.58,18.965,7.189q6.624,2.739,13.044,5.906a164.832,164.832,0,0,1,15.428,8.537c6.131,3.9,12.262,7.863,16.617,13.682,4.21-.116,8.066-2.645,10.732-5.906s4.348-7.247,5.877-11.131c1.355-3.37,2.689-6.848,2.79-10.479a2.073,2.073,0,0,0-1.261-1.812l-29.11-15.428-5.442-2.9c-11.921-6.326-24.269-12.175-36.19-18.494-.8.239-1.449-.674-1.688-1.449s-.406-1.776-1.159-2.123c-.377-.181-.87-.174-1.152-.493a1.377,1.377,0,0,1-.2-.964c.384-5.8,4.544-11.066,3.71-16.784-.355-2.435-1.609-4.833-1.065-7.247.384-1.659,1.573-3,2.218-4.573,1.449-3.515,0-7.747,1.565-11.189a25.871,25.871,0,0,0,2.1-7.131,48.432,48.432,0,0,1,4.45-14.131,25.764,25.764,0,0,1,4.094-6.2c.877-.942,1.862-1.783,2.7-2.761,2.529-3,3.464-7,4.181-10.87,1.3-7.008,2.174-14.276.58-21.219-.551-2.37-1.391-4.718-1.355-7.145.036-3.21,1.449-6.957-.783-9.276a7.2,7.2,0,0,0-3.261-1.674,98.4,98.4,0,0,0-15.783-2.9l-24.313-3.181c-2.783-.37-5.631-.725-8.087-2.109-3.3-1.819-5.486-5.189-6.826-8.7-4.268,3.116-5.863,8.921-9.269,12.943-1.66,1.964-3.71,3.551-5.529,5.355a62.049,62.049,0,0,0-6.095,7.515c-5.073,6.964-10.145,13.979-13.769,21.791-1.891,4.058-3.355,8.29-4.863,12.5-5.935,16.573-15.61,32.306-19.624,49.438-.986,4.189-3.544,7.971-3.942,12.254C277.872,607.43,279.973,611.822,282.155,615.865Z" transform="translate(145.455 -180.542)"/><path class="d" d="M341.358,475.532a7.463,7.463,0,0,1,.9,3.587c-.544-2.681-4.232-4.167-4.471-6.819-.109-1.225.116-1.167.87-.522C339.8,472.771,340.3,474.482,341.358,475.532Z" transform="translate(213.577 -177.854)"/><path class="d" d="M353.85,488.044a5.529,5.529,0,0,1,1.681,2.486,6.3,6.3,0,0,1,.341,4.348c-.544-.254-.725-.92-.891-1.5a10.465,10.465,0,0,0-1.152-2.565c-.435-.725-2.442-2.341-2.435-3.1C351.415,486.544,353.313,487.631,353.85,488.044Z" transform="translate(189.846 -182.22)"/><path class="d" d="M240.987,361.654a27.349,27.349,0,0,0,5.594,3.725c5.254,2.66,11.073,4.065,16.363,6.645a81.022,81.022,0,0,1,7.595,4.428l15.725,9.964a16.861,16.861,0,0,1,3.464,2.631c1.891,2.015,1.884,5.558,3.623,7.718a10.614,10.614,0,0,0,7.631,3.522,24.79,24.79,0,0,0,8.5-1.449,44.138,44.138,0,0,0,4.855-1.768,22.881,22.881,0,0,0,4.667-2.667,13.317,13.317,0,0,0,5.493-8.7,17.174,17.174,0,0,0-.935-7.087,27.2,27.2,0,0,0-1.674-4.3,17.287,17.287,0,0,0-1.333-2.261c-3.623-5.116-9.979-7.515-16.131-8.7-3.232-.63-6.522-1.015-9.79-1.565a35.625,35.625,0,0,1-4.747.725c-4.993.355-9.935-.986-14.762-2.319l-5.261-1.449c-2.638-.725-3.957-3.913-6.624-4.471a9.3,9.3,0,0,0-3.573.181c-5.413,1.029-10.87,2.355-15.631,5.109a25.75,25.75,0,0,0-3.051,2.08Z" transform="translate(301.412 -145.603)"/><path class="e" d="M259.844,267.35c.674,6.413,6.087,11.124,9.421,16.668,1.6,2.689,2.725,5.638,4.167,8.421a83.465,83.465,0,0,0,5.508,8.769l5.892,8.551c3.464,5.029,6.964,10.1,11.392,14.312,7.718,1.312,14.189,7.044,21.508,9.827,5.855,2.225,12.24,2.529,18.385,3.725s12.515,3.623,16.124,8.7a22.762,22.762,0,0,1,3.015,6.522,16.9,16.9,0,0,1,.928,7.08,13.442,13.442,0,0,1-5.486,8.7,30.352,30.352,0,0,1-9.522,4.435,24.965,24.965,0,0,1-8.5,1.449,10.342,10.342,0,0,1-7.638-3.522c-1.8-2.261-1.71-5.7-3.623-7.718a16.913,16.913,0,0,0-3.471-2.631l-15.725-9.964a81.03,81.03,0,0,0-7.587-4.4c-5.29-2.587-11.109-3.986-16.363-6.645s-10.145-7.051-11.2-12.849c-3.2-17.813-15.53-32.828-26.088-47.539.348-.072.239-.862.37-1.2a15.185,15.185,0,0,1,7.725-7.783C252.452,268.6,256.22,268.133,259.844,267.35Z" transform="translate(269.728 -121.694)"/><path class="f" d="M201.74,262.846a9.827,9.827,0,0,1,1.094-5.595c1.746-2.9,5.406-3.92,8.7-4.6q4.776-.978,9.595-1.681a21.662,21.662,0,0,1,7.935-.13c3.623.79,6.573,3.189,9.928,4.681,3.964,1.768,8.355,2.232,12.588,3.21s8.566,2.638,11.218,6.073c2.015,2.609,2.819,5.942,3.42,9.189,5.022,27.1-.384,54.887-1.413,82.425-.4,10.718.087,22.175,6.21,30.98l-17.834-.471c-4.565-.116-9.471-.355-13.044-3.174-3.16-2.478-4.652-6.471-6.008-10.254a31.729,31.729,0,0,1-2.275-9.174c-.283-6.471,3.391-12.827,2.174-19.2-.891-4.754-4.348-8.595-8.051-11.718s-7.819-5.8-10.812-9.624c-5.348-6.761-6.37-16-5.7-24.588.4-5.109,1.312-10.218.87-15.327a19.324,19.324,0,0,0-4.044-10.74C203.472,269.752,201.987,267.636,201.74,262.846Z" transform="translate(383.429 -117.059)"/><path class="d" d="M202.778,258.075c1.717-2.855,5.283-3.884,8.551-4.565a8.428,8.428,0,0,0-4.232,3.334A9.768,9.768,0,0,0,206,262.438c.246,4.783,1.732,6.9,4.573,10.283a19.3,19.3,0,0,1,4.044,10.74c.442,5.109-.471,10.218-.87,15.327-.667,8.587.355,17.827,5.7,24.588,3,3.8,7.116,6.522,10.812,9.624s7.167,6.964,8.058,11.718c1.2,6.37-2.478,12.725-2.174,19.2a31.741,31.741,0,0,0,2.283,9.174c1.348,3.783,2.848,7.769,6.008,10.247,3.623,2.819,8.5,3.065,13.044,3.181l12.631.333c.283.464.572.928.884,1.37l-17.834-.471c-4.565-.116-9.471-.355-13.044-3.174-3.16-2.478-4.652-6.471-6.008-10.254a31.729,31.729,0,0,1-2.275-9.174c-.283-6.471,3.391-12.827,2.174-19.2-.891-4.754-4.348-8.595-8.051-11.718s-7.819-5.8-10.812-9.624c-5.348-6.761-6.37-16-5.7-24.588.4-5.109,1.312-10.218.87-15.327a19.324,19.324,0,0,0-4.044-10.74c-2.841-3.377-4.348-5.493-4.573-10.283A9.827,9.827,0,0,1,202.778,258.075Z" transform="translate(383.485 -117.884)"/><path class="d" d="M429.21,625.032l32.734,79.823a16.117,16.117,0,0,0,4.558-5.022c-2.631-9.95-5.334-20.066-10.689-28.857-1.746-2.9-3.747-5.544-5.544-8.37-5.21-8.189-6.283-18.523-12.233-26.19a4.5,4.5,0,0,1,0-5.334c.688-.891,1.783-1.739,1.58-2.841-.152-.8-.993-1.529-.667-2.283.152-.362.522-.558.812-.819,1.015-.935.884-2.529.971-3.9.225-3.471,2.3-6.522,4.348-9.356a5.8,5.8,0,0,1,1.587-1.71c.536-.326,1.174-.471,1.71-.8,1.9-1.188,1.761-3.957,2.674-6.008,1.189-2.7,4.181-4.08,6.145-6.276,2.5-2.79,3.138-6.682,5.8-9.124l.225-.565L460.668,572Z" transform="translate(23.061 -205.571)"/></g></svg>